<mxfile host="app.diagrams.net" agent="Mozilla/5.0 (Windows NT 10.0; Win64; x64) AppleWebKit/537.36 (KHTML, like Gecko) Chrome/128.0.0.0 Safari/537.36 OPR/114.0.0.0" version="25.0.3">
  <diagram id="C5RBs43oDa-KdzZeNtuy" name="Page-1">
    <mxGraphModel dx="2967" dy="2340" grid="1" gridSize="10" guides="1" tooltips="1" connect="1" arrows="1" fold="1" page="1" pageScale="1" pageWidth="827" pageHeight="1169" math="0" shadow="0">
      <root>
        <mxCell id="WIyWlLk6GJQsqaUBKTNV-0" />
        <mxCell id="WIyWlLk6GJQsqaUBKTNV-1" parent="WIyWlLk6GJQsqaUBKTNV-0" />
        <mxCell id="Ow6LU1PCgr3KY25qpwtb-1" value="DonHang" style="swimlane;fontStyle=1;align=center;verticalAlign=top;childLayout=stackLayout;horizontal=1;startSize=26;horizontalStack=0;resizeParent=1;resizeParentMax=0;resizeLast=0;collapsible=1;marginBottom=0;whiteSpace=wrap;html=1;" vertex="1" parent="WIyWlLk6GJQsqaUBKTNV-1">
          <mxGeometry x="-120" y="90" width="160" height="340" as="geometry" />
        </mxCell>
        <mxCell id="Ow6LU1PCgr3KY25qpwtb-2" value="MaDH: varchar" style="text;strokeColor=none;fillColor=none;align=left;verticalAlign=top;spacingLeft=4;spacingRight=4;overflow=hidden;rotatable=0;points=[[0,0.5],[1,0.5]];portConstraint=eastwest;whiteSpace=wrap;html=1;" vertex="1" parent="Ow6LU1PCgr3KY25qpwtb-1">
          <mxGeometry y="26" width="160" height="26" as="geometry" />
        </mxCell>
        <mxCell id="Ow6LU1PCgr3KY25qpwtb-5" value="NgayDat: datetime" style="text;strokeColor=none;fillColor=none;align=left;verticalAlign=top;spacingLeft=4;spacingRight=4;overflow=hidden;rotatable=0;points=[[0,0.5],[1,0.5]];portConstraint=eastwest;whiteSpace=wrap;html=1;" vertex="1" parent="Ow6LU1PCgr3KY25qpwtb-1">
          <mxGeometry y="52" width="160" height="26" as="geometry" />
        </mxCell>
        <mxCell id="Ow6LU1PCgr3KY25qpwtb-6" value="TongTien: float" style="text;strokeColor=none;fillColor=none;align=left;verticalAlign=top;spacingLeft=4;spacingRight=4;overflow=hidden;rotatable=0;points=[[0,0.5],[1,0.5]];portConstraint=eastwest;whiteSpace=wrap;html=1;" vertex="1" parent="Ow6LU1PCgr3KY25qpwtb-1">
          <mxGeometry y="78" width="160" height="26" as="geometry" />
        </mxCell>
        <mxCell id="Ow6LU1PCgr3KY25qpwtb-7" value="PTThanhToan: nvarchar" style="text;strokeColor=none;fillColor=none;align=left;verticalAlign=top;spacingLeft=4;spacingRight=4;overflow=hidden;rotatable=0;points=[[0,0.5],[1,0.5]];portConstraint=eastwest;whiteSpace=wrap;html=1;" vertex="1" parent="Ow6LU1PCgr3KY25qpwtb-1">
          <mxGeometry y="104" width="160" height="26" as="geometry" />
        </mxCell>
        <mxCell id="Ow6LU1PCgr3KY25qpwtb-8" value="TTDonHang: nvarchar" style="text;strokeColor=none;fillColor=none;align=left;verticalAlign=top;spacingLeft=4;spacingRight=4;overflow=hidden;rotatable=0;points=[[0,0.5],[1,0.5]];portConstraint=eastwest;whiteSpace=wrap;html=1;" vertex="1" parent="Ow6LU1PCgr3KY25qpwtb-1">
          <mxGeometry y="130" width="160" height="26" as="geometry" />
        </mxCell>
        <mxCell id="Ow6LU1PCgr3KY25qpwtb-9" value="TTThanhToan: nvarchar" style="text;strokeColor=none;fillColor=none;align=left;verticalAlign=top;spacingLeft=4;spacingRight=4;overflow=hidden;rotatable=0;points=[[0,0.5],[1,0.5]];portConstraint=eastwest;whiteSpace=wrap;html=1;" vertex="1" parent="Ow6LU1PCgr3KY25qpwtb-1">
          <mxGeometry y="156" width="160" height="26" as="geometry" />
        </mxCell>
        <mxCell id="Ow6LU1PCgr3KY25qpwtb-10" value="MaKH: int" style="text;strokeColor=none;fillColor=none;align=left;verticalAlign=top;spacingLeft=4;spacingRight=4;overflow=hidden;rotatable=0;points=[[0,0.5],[1,0.5]];portConstraint=eastwest;whiteSpace=wrap;html=1;" vertex="1" parent="Ow6LU1PCgr3KY25qpwtb-1">
          <mxGeometry y="182" width="160" height="26" as="geometry" />
        </mxCell>
        <mxCell id="Ow6LU1PCgr3KY25qpwtb-3" value="" style="line;strokeWidth=1;fillColor=none;align=left;verticalAlign=middle;spacingTop=-1;spacingLeft=3;spacingRight=3;rotatable=0;labelPosition=right;points=[];portConstraint=eastwest;strokeColor=inherit;" vertex="1" parent="Ow6LU1PCgr3KY25qpwtb-1">
          <mxGeometry y="208" width="160" height="22" as="geometry" />
        </mxCell>
        <mxCell id="Ow6LU1PCgr3KY25qpwtb-4" value="&lt;div&gt;add()&lt;/div&gt;&lt;div&gt;&lt;br&gt;&lt;/div&gt;&lt;div&gt;&lt;span style=&quot;background-color: initial;&quot;&gt;update()&lt;/span&gt;&lt;br&gt;&lt;/div&gt;&lt;div&gt;&lt;br&gt;&lt;/div&gt;&lt;div&gt;delete()&lt;/div&gt;&lt;div&gt;&lt;br&gt;&lt;/div&gt;&lt;div&gt;find()&lt;/div&gt;" style="text;strokeColor=none;fillColor=none;align=left;verticalAlign=top;spacingLeft=4;spacingRight=4;overflow=hidden;rotatable=0;points=[[0,0.5],[1,0.5]];portConstraint=eastwest;whiteSpace=wrap;html=1;" vertex="1" parent="Ow6LU1PCgr3KY25qpwtb-1">
          <mxGeometry y="230" width="160" height="110" as="geometry" />
        </mxCell>
        <mxCell id="Ow6LU1PCgr3KY25qpwtb-12" value="TaiKhoan" style="swimlane;fontStyle=1;align=center;verticalAlign=top;childLayout=stackLayout;horizontal=1;startSize=26;horizontalStack=0;resizeParent=1;resizeParentMax=0;resizeLast=0;collapsible=1;marginBottom=0;whiteSpace=wrap;html=1;" vertex="1" parent="WIyWlLk6GJQsqaUBKTNV-1">
          <mxGeometry x="370" y="-260" width="160" height="326" as="geometry" />
        </mxCell>
        <mxCell id="Ow6LU1PCgr3KY25qpwtb-13" value="MaKH: int" style="text;strokeColor=none;fillColor=none;align=left;verticalAlign=top;spacingLeft=4;spacingRight=4;overflow=hidden;rotatable=0;points=[[0,0.5],[1,0.5]];portConstraint=eastwest;whiteSpace=wrap;html=1;" vertex="1" parent="Ow6LU1PCgr3KY25qpwtb-12">
          <mxGeometry y="26" width="160" height="26" as="geometry" />
        </mxCell>
        <mxCell id="Ow6LU1PCgr3KY25qpwtb-14" value="HoTen: nvarchar" style="text;strokeColor=none;fillColor=none;align=left;verticalAlign=top;spacingLeft=4;spacingRight=4;overflow=hidden;rotatable=0;points=[[0,0.5],[1,0.5]];portConstraint=eastwest;whiteSpace=wrap;html=1;" vertex="1" parent="Ow6LU1PCgr3KY25qpwtb-12">
          <mxGeometry y="52" width="160" height="26" as="geometry" />
        </mxCell>
        <mxCell id="Ow6LU1PCgr3KY25qpwtb-15" value="Email: nvarchar" style="text;strokeColor=none;fillColor=none;align=left;verticalAlign=top;spacingLeft=4;spacingRight=4;overflow=hidden;rotatable=0;points=[[0,0.5],[1,0.5]];portConstraint=eastwest;whiteSpace=wrap;html=1;" vertex="1" parent="Ow6LU1PCgr3KY25qpwtb-12">
          <mxGeometry y="78" width="160" height="26" as="geometry" />
        </mxCell>
        <mxCell id="Ow6LU1PCgr3KY25qpwtb-16" value="DiaChi: nvarchar" style="text;strokeColor=none;fillColor=none;align=left;verticalAlign=top;spacingLeft=4;spacingRight=4;overflow=hidden;rotatable=0;points=[[0,0.5],[1,0.5]];portConstraint=eastwest;whiteSpace=wrap;html=1;" vertex="1" parent="Ow6LU1PCgr3KY25qpwtb-12">
          <mxGeometry y="104" width="160" height="26" as="geometry" />
        </mxCell>
        <mxCell id="Ow6LU1PCgr3KY25qpwtb-17" value="SoDienThoai: nvarchar" style="text;strokeColor=none;fillColor=none;align=left;verticalAlign=top;spacingLeft=4;spacingRight=4;overflow=hidden;rotatable=0;points=[[0,0.5],[1,0.5]];portConstraint=eastwest;whiteSpace=wrap;html=1;" vertex="1" parent="Ow6LU1PCgr3KY25qpwtb-12">
          <mxGeometry y="130" width="160" height="26" as="geometry" />
        </mxCell>
        <mxCell id="Ow6LU1PCgr3KY25qpwtb-18" value="MatKhau: nvarchar" style="text;strokeColor=none;fillColor=none;align=left;verticalAlign=top;spacingLeft=4;spacingRight=4;overflow=hidden;rotatable=0;points=[[0,0.5],[1,0.5]];portConstraint=eastwest;whiteSpace=wrap;html=1;" vertex="1" parent="Ow6LU1PCgr3KY25qpwtb-12">
          <mxGeometry y="156" width="160" height="26" as="geometry" />
        </mxCell>
        <mxCell id="Ow6LU1PCgr3KY25qpwtb-99" value="ChucVu: nvarchar" style="text;strokeColor=none;fillColor=none;align=left;verticalAlign=top;spacingLeft=4;spacingRight=4;overflow=hidden;rotatable=0;points=[[0,0.5],[1,0.5]];portConstraint=eastwest;whiteSpace=wrap;html=1;" vertex="1" parent="Ow6LU1PCgr3KY25qpwtb-12">
          <mxGeometry y="182" width="160" height="26" as="geometry" />
        </mxCell>
        <mxCell id="Ow6LU1PCgr3KY25qpwtb-20" value="" style="line;strokeWidth=1;fillColor=none;align=left;verticalAlign=middle;spacingTop=-1;spacingLeft=3;spacingRight=3;rotatable=0;labelPosition=right;points=[];portConstraint=eastwest;strokeColor=inherit;" vertex="1" parent="Ow6LU1PCgr3KY25qpwtb-12">
          <mxGeometry y="208" width="160" height="22" as="geometry" />
        </mxCell>
        <mxCell id="Ow6LU1PCgr3KY25qpwtb-21" value="&lt;div&gt;addToCart()&lt;/div&gt;&lt;div&gt;&lt;br&gt;&lt;/div&gt;&lt;div&gt;updateInfomation()&lt;/div&gt;&lt;div&gt;&lt;br&gt;&lt;/div&gt;&lt;div&gt;findDonHang()&lt;/div&gt;" style="text;strokeColor=none;fillColor=none;align=left;verticalAlign=top;spacingLeft=4;spacingRight=4;overflow=hidden;rotatable=0;points=[[0,0.5],[1,0.5]];portConstraint=eastwest;whiteSpace=wrap;html=1;" vertex="1" parent="Ow6LU1PCgr3KY25qpwtb-12">
          <mxGeometry y="230" width="160" height="96" as="geometry" />
        </mxCell>
        <mxCell id="Ow6LU1PCgr3KY25qpwtb-25" value="SanPham" style="swimlane;fontStyle=1;align=center;verticalAlign=top;childLayout=stackLayout;horizontal=1;startSize=26;horizontalStack=0;resizeParent=1;resizeParentMax=0;resizeLast=0;collapsible=1;marginBottom=0;whiteSpace=wrap;html=1;" vertex="1" parent="WIyWlLk6GJQsqaUBKTNV-1">
          <mxGeometry x="242" y="100" width="160" height="500" as="geometry" />
        </mxCell>
        <mxCell id="Ow6LU1PCgr3KY25qpwtb-26" value="MaSP: int" style="text;strokeColor=none;fillColor=none;align=left;verticalAlign=top;spacingLeft=4;spacingRight=4;overflow=hidden;rotatable=0;points=[[0,0.5],[1,0.5]];portConstraint=eastwest;whiteSpace=wrap;html=1;" vertex="1" parent="Ow6LU1PCgr3KY25qpwtb-25">
          <mxGeometry y="26" width="160" height="26" as="geometry" />
        </mxCell>
        <mxCell id="Ow6LU1PCgr3KY25qpwtb-27" value="TenSP: nvarchar" style="text;strokeColor=none;fillColor=none;align=left;verticalAlign=top;spacingLeft=4;spacingRight=4;overflow=hidden;rotatable=0;points=[[0,0.5],[1,0.5]];portConstraint=eastwest;whiteSpace=wrap;html=1;" vertex="1" parent="Ow6LU1PCgr3KY25qpwtb-25">
          <mxGeometry y="52" width="160" height="26" as="geometry" />
        </mxCell>
        <mxCell id="Ow6LU1PCgr3KY25qpwtb-28" value="NgayNhap: datetime" style="text;strokeColor=none;fillColor=none;align=left;verticalAlign=top;spacingLeft=4;spacingRight=4;overflow=hidden;rotatable=0;points=[[0,0.5],[1,0.5]];portConstraint=eastwest;whiteSpace=wrap;html=1;" vertex="1" parent="Ow6LU1PCgr3KY25qpwtb-25">
          <mxGeometry y="78" width="160" height="26" as="geometry" />
        </mxCell>
        <mxCell id="Ow6LU1PCgr3KY25qpwtb-29" value="GiaTien: float" style="text;strokeColor=none;fillColor=none;align=left;verticalAlign=top;spacingLeft=4;spacingRight=4;overflow=hidden;rotatable=0;points=[[0,0.5],[1,0.5]];portConstraint=eastwest;whiteSpace=wrap;html=1;" vertex="1" parent="Ow6LU1PCgr3KY25qpwtb-25">
          <mxGeometry y="104" width="160" height="26" as="geometry" />
        </mxCell>
        <mxCell id="Ow6LU1PCgr3KY25qpwtb-30" value="GiaTienDaKhuyenMai: float" style="text;strokeColor=none;fillColor=none;align=left;verticalAlign=top;spacingLeft=4;spacingRight=4;overflow=hidden;rotatable=0;points=[[0,0.5],[1,0.5]];portConstraint=eastwest;whiteSpace=wrap;html=1;" vertex="1" parent="Ow6LU1PCgr3KY25qpwtb-25">
          <mxGeometry y="130" width="160" height="26" as="geometry" />
        </mxCell>
        <mxCell id="Ow6LU1PCgr3KY25qpwtb-31" value="SoLuong: int" style="text;strokeColor=none;fillColor=none;align=left;verticalAlign=top;spacingLeft=4;spacingRight=4;overflow=hidden;rotatable=0;points=[[0,0.5],[1,0.5]];portConstraint=eastwest;whiteSpace=wrap;html=1;" vertex="1" parent="Ow6LU1PCgr3KY25qpwtb-25">
          <mxGeometry y="156" width="160" height="26" as="geometry" />
        </mxCell>
        <mxCell id="Ow6LU1PCgr3KY25qpwtb-32" value="MoTa: nvarchar" style="text;strokeColor=none;fillColor=none;align=left;verticalAlign=top;spacingLeft=4;spacingRight=4;overflow=hidden;rotatable=0;points=[[0,0.5],[1,0.5]];portConstraint=eastwest;whiteSpace=wrap;html=1;" vertex="1" parent="Ow6LU1PCgr3KY25qpwtb-25">
          <mxGeometry y="182" width="160" height="26" as="geometry" />
        </mxCell>
        <mxCell id="Ow6LU1PCgr3KY25qpwtb-42" value="MoTaSanPham: nvarchar" style="text;strokeColor=none;fillColor=none;align=left;verticalAlign=top;spacingLeft=4;spacingRight=4;overflow=hidden;rotatable=0;points=[[0,0.5],[1,0.5]];portConstraint=eastwest;whiteSpace=wrap;html=1;" vertex="1" parent="Ow6LU1PCgr3KY25qpwtb-25">
          <mxGeometry y="208" width="160" height="26" as="geometry" />
        </mxCell>
        <mxCell id="Ow6LU1PCgr3KY25qpwtb-41" value="HinhAnh: nvarchar" style="text;strokeColor=none;fillColor=none;align=left;verticalAlign=top;spacingLeft=4;spacingRight=4;overflow=hidden;rotatable=0;points=[[0,0.5],[1,0.5]];portConstraint=eastwest;whiteSpace=wrap;html=1;" vertex="1" parent="Ow6LU1PCgr3KY25qpwtb-25">
          <mxGeometry y="234" width="160" height="26" as="geometry" />
        </mxCell>
        <mxCell id="Ow6LU1PCgr3KY25qpwtb-40" value="GiamGia: nvarchar" style="text;strokeColor=none;fillColor=none;align=left;verticalAlign=top;spacingLeft=4;spacingRight=4;overflow=hidden;rotatable=0;points=[[0,0.5],[1,0.5]];portConstraint=eastwest;whiteSpace=wrap;html=1;" vertex="1" parent="Ow6LU1PCgr3KY25qpwtb-25">
          <mxGeometry y="260" width="160" height="26" as="geometry" />
        </mxCell>
        <mxCell id="Ow6LU1PCgr3KY25qpwtb-39" value="TinhTrangSP: nvarchar" style="text;strokeColor=none;fillColor=none;align=left;verticalAlign=top;spacingLeft=4;spacingRight=4;overflow=hidden;rotatable=0;points=[[0,0.5],[1,0.5]];portConstraint=eastwest;whiteSpace=wrap;html=1;" vertex="1" parent="Ow6LU1PCgr3KY25qpwtb-25">
          <mxGeometry y="286" width="160" height="26" as="geometry" />
        </mxCell>
        <mxCell id="Ow6LU1PCgr3KY25qpwtb-38" value="MaLoai: int" style="text;strokeColor=none;fillColor=none;align=left;verticalAlign=top;spacingLeft=4;spacingRight=4;overflow=hidden;rotatable=0;points=[[0,0.5],[1,0.5]];portConstraint=eastwest;whiteSpace=wrap;html=1;" vertex="1" parent="Ow6LU1PCgr3KY25qpwtb-25">
          <mxGeometry y="312" width="160" height="26" as="geometry" />
        </mxCell>
        <mxCell id="Ow6LU1PCgr3KY25qpwtb-37" value="MaNCC: int" style="text;strokeColor=none;fillColor=none;align=left;verticalAlign=top;spacingLeft=4;spacingRight=4;overflow=hidden;rotatable=0;points=[[0,0.5],[1,0.5]];portConstraint=eastwest;whiteSpace=wrap;html=1;" vertex="1" parent="Ow6LU1PCgr3KY25qpwtb-25">
          <mxGeometry y="338" width="160" height="26" as="geometry" />
        </mxCell>
        <mxCell id="Ow6LU1PCgr3KY25qpwtb-33" value="" style="line;strokeWidth=1;fillColor=none;align=left;verticalAlign=middle;spacingTop=-1;spacingLeft=3;spacingRight=3;rotatable=0;labelPosition=right;points=[];portConstraint=eastwest;strokeColor=inherit;" vertex="1" parent="Ow6LU1PCgr3KY25qpwtb-25">
          <mxGeometry y="364" width="160" height="26" as="geometry" />
        </mxCell>
        <mxCell id="Ow6LU1PCgr3KY25qpwtb-34" value="&lt;div&gt;add()&lt;/div&gt;&lt;div&gt;&lt;br&gt;&lt;/div&gt;&lt;div&gt;&lt;span style=&quot;background-color: initial;&quot;&gt;update()&lt;/span&gt;&lt;br&gt;&lt;/div&gt;&lt;div&gt;&lt;br&gt;&lt;/div&gt;&lt;div&gt;delete()&lt;/div&gt;&lt;div&gt;&lt;br&gt;&lt;/div&gt;&lt;div&gt;find()&lt;/div&gt;" style="text;strokeColor=none;fillColor=none;align=left;verticalAlign=top;spacingLeft=4;spacingRight=4;overflow=hidden;rotatable=0;points=[[0,0.5],[1,0.5]];portConstraint=eastwest;whiteSpace=wrap;html=1;" vertex="1" parent="Ow6LU1PCgr3KY25qpwtb-25">
          <mxGeometry y="390" width="160" height="110" as="geometry" />
        </mxCell>
        <mxCell id="Ow6LU1PCgr3KY25qpwtb-46" value="ChiTietDonHang" style="swimlane;fontStyle=1;align=center;verticalAlign=top;childLayout=stackLayout;horizontal=1;startSize=26;horizontalStack=0;resizeParent=1;resizeParentMax=0;resizeLast=0;collapsible=1;marginBottom=0;whiteSpace=wrap;html=1;" vertex="1" parent="WIyWlLk6GJQsqaUBKTNV-1">
          <mxGeometry x="-140" y="590" width="160" height="152" as="geometry" />
        </mxCell>
        <mxCell id="Ow6LU1PCgr3KY25qpwtb-47" value="MaHD: int" style="text;strokeColor=none;fillColor=none;align=left;verticalAlign=top;spacingLeft=4;spacingRight=4;overflow=hidden;rotatable=0;points=[[0,0.5],[1,0.5]];portConstraint=eastwest;whiteSpace=wrap;html=1;" vertex="1" parent="Ow6LU1PCgr3KY25qpwtb-46">
          <mxGeometry y="26" width="160" height="26" as="geometry" />
        </mxCell>
        <mxCell id="Ow6LU1PCgr3KY25qpwtb-48" value="MaSP: int" style="text;strokeColor=none;fillColor=none;align=left;verticalAlign=top;spacingLeft=4;spacingRight=4;overflow=hidden;rotatable=0;points=[[0,0.5],[1,0.5]];portConstraint=eastwest;whiteSpace=wrap;html=1;" vertex="1" parent="Ow6LU1PCgr3KY25qpwtb-46">
          <mxGeometry y="52" width="160" height="26" as="geometry" />
        </mxCell>
        <mxCell id="Ow6LU1PCgr3KY25qpwtb-49" value="SoLuong: int" style="text;strokeColor=none;fillColor=none;align=left;verticalAlign=top;spacingLeft=4;spacingRight=4;overflow=hidden;rotatable=0;points=[[0,0.5],[1,0.5]];portConstraint=eastwest;whiteSpace=wrap;html=1;" vertex="1" parent="Ow6LU1PCgr3KY25qpwtb-46">
          <mxGeometry y="78" width="160" height="26" as="geometry" />
        </mxCell>
        <mxCell id="Ow6LU1PCgr3KY25qpwtb-50" value="TongTien: float" style="text;strokeColor=none;fillColor=none;align=left;verticalAlign=top;spacingLeft=4;spacingRight=4;overflow=hidden;rotatable=0;points=[[0,0.5],[1,0.5]];portConstraint=eastwest;whiteSpace=wrap;html=1;" vertex="1" parent="Ow6LU1PCgr3KY25qpwtb-46">
          <mxGeometry y="104" width="160" height="26" as="geometry" />
        </mxCell>
        <mxCell id="Ow6LU1PCgr3KY25qpwtb-53" value="" style="line;strokeWidth=1;fillColor=none;align=left;verticalAlign=middle;spacingTop=-1;spacingLeft=3;spacingRight=3;rotatable=0;labelPosition=right;points=[];portConstraint=eastwest;strokeColor=inherit;" vertex="1" parent="Ow6LU1PCgr3KY25qpwtb-46">
          <mxGeometry y="130" width="160" height="22" as="geometry" />
        </mxCell>
        <mxCell id="Ow6LU1PCgr3KY25qpwtb-55" value="" style="endArrow=none;html=1;rounded=0;" edge="1" parent="WIyWlLk6GJQsqaUBKTNV-1" source="Ow6LU1PCgr3KY25qpwtb-46" target="Ow6LU1PCgr3KY25qpwtb-25">
          <mxGeometry width="50" height="50" relative="1" as="geometry">
            <mxPoint x="90" y="860" as="sourcePoint" />
            <mxPoint x="140" y="810" as="targetPoint" />
          </mxGeometry>
        </mxCell>
        <mxCell id="Ow6LU1PCgr3KY25qpwtb-58" value="" style="endArrow=none;html=1;rounded=0;" edge="1" parent="WIyWlLk6GJQsqaUBKTNV-1" source="Ow6LU1PCgr3KY25qpwtb-46" target="Ow6LU1PCgr3KY25qpwtb-1">
          <mxGeometry width="50" height="50" relative="1" as="geometry">
            <mxPoint x="150" y="609" as="sourcePoint" />
            <mxPoint x="150" y="539" as="targetPoint" />
          </mxGeometry>
        </mxCell>
        <mxCell id="Ow6LU1PCgr3KY25qpwtb-61" value="1" style="text;html=1;align=center;verticalAlign=middle;resizable=0;points=[];autosize=1;strokeColor=none;fillColor=none;" vertex="1" parent="WIyWlLk6GJQsqaUBKTNV-1">
          <mxGeometry x="-50" y="554" width="30" height="30" as="geometry" />
        </mxCell>
        <mxCell id="Ow6LU1PCgr3KY25qpwtb-63" value="*" style="text;html=1;align=center;verticalAlign=middle;resizable=0;points=[];autosize=1;strokeColor=none;fillColor=none;" vertex="1" parent="WIyWlLk6GJQsqaUBKTNV-1">
          <mxGeometry x="-55" y="430" width="30" height="30" as="geometry" />
        </mxCell>
        <mxCell id="Ow6LU1PCgr3KY25qpwtb-64" value="LoaiHang" style="swimlane;fontStyle=1;align=center;verticalAlign=top;childLayout=stackLayout;horizontal=1;startSize=26;horizontalStack=0;resizeParent=1;resizeParentMax=0;resizeLast=0;collapsible=1;marginBottom=0;whiteSpace=wrap;html=1;" vertex="1" parent="WIyWlLk6GJQsqaUBKTNV-1">
          <mxGeometry x="510" y="140" width="160" height="270" as="geometry" />
        </mxCell>
        <mxCell id="Ow6LU1PCgr3KY25qpwtb-65" value="MaLoai: int" style="text;strokeColor=none;fillColor=none;align=left;verticalAlign=top;spacingLeft=4;spacingRight=4;overflow=hidden;rotatable=0;points=[[0,0.5],[1,0.5]];portConstraint=eastwest;whiteSpace=wrap;html=1;" vertex="1" parent="Ow6LU1PCgr3KY25qpwtb-64">
          <mxGeometry y="26" width="160" height="26" as="geometry" />
        </mxCell>
        <mxCell id="Ow6LU1PCgr3KY25qpwtb-66" value="TenLoai: nvarchar" style="text;strokeColor=none;fillColor=none;align=left;verticalAlign=top;spacingLeft=4;spacingRight=4;overflow=hidden;rotatable=0;points=[[0,0.5],[1,0.5]];portConstraint=eastwest;whiteSpace=wrap;html=1;" vertex="1" parent="Ow6LU1PCgr3KY25qpwtb-64">
          <mxGeometry y="52" width="160" height="26" as="geometry" />
        </mxCell>
        <mxCell id="Ow6LU1PCgr3KY25qpwtb-67" value="HinhAnh: nvarchar" style="text;strokeColor=none;fillColor=none;align=left;verticalAlign=top;spacingLeft=4;spacingRight=4;overflow=hidden;rotatable=0;points=[[0,0.5],[1,0.5]];portConstraint=eastwest;whiteSpace=wrap;html=1;" vertex="1" parent="Ow6LU1PCgr3KY25qpwtb-64">
          <mxGeometry y="78" width="160" height="26" as="geometry" />
        </mxCell>
        <mxCell id="Ow6LU1PCgr3KY25qpwtb-71" value="" style="line;strokeWidth=1;fillColor=none;align=left;verticalAlign=middle;spacingTop=-1;spacingLeft=3;spacingRight=3;rotatable=0;labelPosition=right;points=[];portConstraint=eastwest;strokeColor=inherit;" vertex="1" parent="Ow6LU1PCgr3KY25qpwtb-64">
          <mxGeometry y="104" width="160" height="22" as="geometry" />
        </mxCell>
        <mxCell id="Ow6LU1PCgr3KY25qpwtb-72" value="&lt;div&gt;add()&lt;/div&gt;&lt;div&gt;&lt;br&gt;&lt;/div&gt;&lt;div&gt;delete()&lt;/div&gt;&lt;div&gt;&lt;br&gt;&lt;/div&gt;&lt;div&gt;update()&lt;/div&gt;&lt;div&gt;&lt;br&gt;&lt;/div&gt;&lt;div&gt;find()&lt;/div&gt;" style="text;strokeColor=none;fillColor=none;align=left;verticalAlign=top;spacingLeft=4;spacingRight=4;overflow=hidden;rotatable=0;points=[[0,0.5],[1,0.5]];portConstraint=eastwest;whiteSpace=wrap;html=1;" vertex="1" parent="Ow6LU1PCgr3KY25qpwtb-64">
          <mxGeometry y="126" width="160" height="144" as="geometry" />
        </mxCell>
        <mxCell id="Ow6LU1PCgr3KY25qpwtb-73" value="" style="endArrow=none;html=1;rounded=0;" edge="1" parent="WIyWlLk6GJQsqaUBKTNV-1" source="Ow6LU1PCgr3KY25qpwtb-25" target="Ow6LU1PCgr3KY25qpwtb-64">
          <mxGeometry width="50" height="50" relative="1" as="geometry">
            <mxPoint x="377" y="-58" as="sourcePoint" />
            <mxPoint x="427" y="-108" as="targetPoint" />
          </mxGeometry>
        </mxCell>
        <mxCell id="Ow6LU1PCgr3KY25qpwtb-77" value="NhaCungCap" style="swimlane;fontStyle=1;align=center;verticalAlign=top;childLayout=stackLayout;horizontal=1;startSize=26;horizontalStack=0;resizeParent=1;resizeParentMax=0;resizeLast=0;collapsible=1;marginBottom=0;whiteSpace=wrap;html=1;" vertex="1" parent="WIyWlLk6GJQsqaUBKTNV-1">
          <mxGeometry x="497" y="522" width="160" height="280" as="geometry" />
        </mxCell>
        <mxCell id="Ow6LU1PCgr3KY25qpwtb-78" value="MaNCC: int" style="text;strokeColor=none;fillColor=none;align=left;verticalAlign=top;spacingLeft=4;spacingRight=4;overflow=hidden;rotatable=0;points=[[0,0.5],[1,0.5]];portConstraint=eastwest;whiteSpace=wrap;html=1;" vertex="1" parent="Ow6LU1PCgr3KY25qpwtb-77">
          <mxGeometry y="26" width="160" height="26" as="geometry" />
        </mxCell>
        <mxCell id="Ow6LU1PCgr3KY25qpwtb-79" value="TenNCC: nvarchar" style="text;strokeColor=none;fillColor=none;align=left;verticalAlign=top;spacingLeft=4;spacingRight=4;overflow=hidden;rotatable=0;points=[[0,0.5],[1,0.5]];portConstraint=eastwest;whiteSpace=wrap;html=1;" vertex="1" parent="Ow6LU1PCgr3KY25qpwtb-77">
          <mxGeometry y="52" width="160" height="26" as="geometry" />
        </mxCell>
        <mxCell id="Ow6LU1PCgr3KY25qpwtb-80" value="SoDienThoaiNCC: nvarchar" style="text;strokeColor=none;fillColor=none;align=left;verticalAlign=top;spacingLeft=4;spacingRight=4;overflow=hidden;rotatable=0;points=[[0,0.5],[1,0.5]];portConstraint=eastwest;whiteSpace=wrap;html=1;" vertex="1" parent="Ow6LU1PCgr3KY25qpwtb-77">
          <mxGeometry y="78" width="160" height="26" as="geometry" />
        </mxCell>
        <mxCell id="Ow6LU1PCgr3KY25qpwtb-84" value="DiaChiNCC: nvarchar" style="text;strokeColor=none;fillColor=none;align=left;verticalAlign=top;spacingLeft=4;spacingRight=4;overflow=hidden;rotatable=0;points=[[0,0.5],[1,0.5]];portConstraint=eastwest;whiteSpace=wrap;html=1;" vertex="1" parent="Ow6LU1PCgr3KY25qpwtb-77">
          <mxGeometry y="104" width="160" height="26" as="geometry" />
        </mxCell>
        <mxCell id="Ow6LU1PCgr3KY25qpwtb-85" value="HinhAnh: nvarchar" style="text;strokeColor=none;fillColor=none;align=left;verticalAlign=top;spacingLeft=4;spacingRight=4;overflow=hidden;rotatable=0;points=[[0,0.5],[1,0.5]];portConstraint=eastwest;whiteSpace=wrap;html=1;" vertex="1" parent="Ow6LU1PCgr3KY25qpwtb-77">
          <mxGeometry y="130" width="160" height="26" as="geometry" />
        </mxCell>
        <mxCell id="Ow6LU1PCgr3KY25qpwtb-81" value="" style="line;strokeWidth=1;fillColor=none;align=left;verticalAlign=middle;spacingTop=-1;spacingLeft=3;spacingRight=3;rotatable=0;labelPosition=right;points=[];portConstraint=eastwest;strokeColor=inherit;" vertex="1" parent="Ow6LU1PCgr3KY25qpwtb-77">
          <mxGeometry y="156" width="160" height="14" as="geometry" />
        </mxCell>
        <mxCell id="Ow6LU1PCgr3KY25qpwtb-82" value="&lt;div&gt;add()&lt;/div&gt;&lt;div&gt;&lt;br&gt;&lt;/div&gt;&lt;div&gt;&lt;span style=&quot;background-color: initial;&quot;&gt;update()&lt;/span&gt;&lt;/div&gt;&lt;div&gt;&lt;span style=&quot;background-color: initial;&quot;&gt;&lt;br&gt;&lt;/span&gt;&lt;/div&gt;&lt;div&gt;&lt;span style=&quot;background-color: initial;&quot;&gt;delete()&lt;/span&gt;&lt;/div&gt;&lt;div&gt;&lt;span style=&quot;background-color: initial;&quot;&gt;&lt;br&gt;&lt;/span&gt;&lt;/div&gt;&lt;div&gt;&lt;span style=&quot;background-color: initial;&quot;&gt;update()&lt;/span&gt;&lt;/div&gt;" style="text;strokeColor=none;fillColor=none;align=left;verticalAlign=top;spacingLeft=4;spacingRight=4;overflow=hidden;rotatable=0;points=[[0,0.5],[1,0.5]];portConstraint=eastwest;whiteSpace=wrap;html=1;" vertex="1" parent="Ow6LU1PCgr3KY25qpwtb-77">
          <mxGeometry y="170" width="160" height="110" as="geometry" />
        </mxCell>
        <mxCell id="Ow6LU1PCgr3KY25qpwtb-86" value="" style="endArrow=none;html=1;rounded=0;" edge="1" parent="WIyWlLk6GJQsqaUBKTNV-1" source="Ow6LU1PCgr3KY25qpwtb-77" target="Ow6LU1PCgr3KY25qpwtb-25">
          <mxGeometry width="50" height="50" relative="1" as="geometry">
            <mxPoint x="597" y="662" as="sourcePoint" />
            <mxPoint x="647" y="612" as="targetPoint" />
          </mxGeometry>
        </mxCell>
        <mxCell id="Ow6LU1PCgr3KY25qpwtb-89" value="AnhSanPham" style="swimlane;fontStyle=1;align=center;verticalAlign=top;childLayout=stackLayout;horizontal=1;startSize=26;horizontalStack=0;resizeParent=1;resizeParentMax=0;resizeLast=0;collapsible=1;marginBottom=0;whiteSpace=wrap;html=1;" vertex="1" parent="WIyWlLk6GJQsqaUBKTNV-1">
          <mxGeometry x="80" y="620" width="160" height="182" as="geometry" />
        </mxCell>
        <mxCell id="Ow6LU1PCgr3KY25qpwtb-90" value="MaHinh: int" style="text;strokeColor=none;fillColor=none;align=left;verticalAlign=top;spacingLeft=4;spacingRight=4;overflow=hidden;rotatable=0;points=[[0,0.5],[1,0.5]];portConstraint=eastwest;whiteSpace=wrap;html=1;" vertex="1" parent="Ow6LU1PCgr3KY25qpwtb-89">
          <mxGeometry y="26" width="160" height="26" as="geometry" />
        </mxCell>
        <mxCell id="Ow6LU1PCgr3KY25qpwtb-91" value="HinhAnh: nvarchar" style="text;strokeColor=none;fillColor=none;align=left;verticalAlign=top;spacingLeft=4;spacingRight=4;overflow=hidden;rotatable=0;points=[[0,0.5],[1,0.5]];portConstraint=eastwest;whiteSpace=wrap;html=1;" vertex="1" parent="Ow6LU1PCgr3KY25qpwtb-89">
          <mxGeometry y="52" width="160" height="26" as="geometry" />
        </mxCell>
        <mxCell id="Ow6LU1PCgr3KY25qpwtb-92" value="MaSP: int" style="text;strokeColor=none;fillColor=none;align=left;verticalAlign=top;spacingLeft=4;spacingRight=4;overflow=hidden;rotatable=0;points=[[0,0.5],[1,0.5]];portConstraint=eastwest;whiteSpace=wrap;html=1;" vertex="1" parent="Ow6LU1PCgr3KY25qpwtb-89">
          <mxGeometry y="78" width="160" height="26" as="geometry" />
        </mxCell>
        <mxCell id="Ow6LU1PCgr3KY25qpwtb-93" value="" style="line;strokeWidth=1;fillColor=none;align=left;verticalAlign=middle;spacingTop=-1;spacingLeft=3;spacingRight=3;rotatable=0;labelPosition=right;points=[];portConstraint=eastwest;strokeColor=inherit;" vertex="1" parent="Ow6LU1PCgr3KY25qpwtb-89">
          <mxGeometry y="104" width="160" height="22" as="geometry" />
        </mxCell>
        <mxCell id="Ow6LU1PCgr3KY25qpwtb-94" value="&lt;div&gt;add()&lt;/div&gt;&lt;div&gt;&lt;br&gt;&lt;/div&gt;&lt;div&gt;&lt;span style=&quot;background-color: initial;&quot;&gt;delete()&lt;/span&gt;&lt;/div&gt;" style="text;strokeColor=none;fillColor=none;align=left;verticalAlign=top;spacingLeft=4;spacingRight=4;overflow=hidden;rotatable=0;points=[[0,0.5],[1,0.5]];portConstraint=eastwest;whiteSpace=wrap;html=1;" vertex="1" parent="Ow6LU1PCgr3KY25qpwtb-89">
          <mxGeometry y="126" width="160" height="56" as="geometry" />
        </mxCell>
        <mxCell id="Ow6LU1PCgr3KY25qpwtb-95" value="" style="endArrow=none;html=1;rounded=0;" edge="1" parent="WIyWlLk6GJQsqaUBKTNV-1" source="Ow6LU1PCgr3KY25qpwtb-89" target="Ow6LU1PCgr3KY25qpwtb-25">
          <mxGeometry width="50" height="50" relative="1" as="geometry">
            <mxPoint x="267" y="712" as="sourcePoint" />
            <mxPoint x="317" y="662" as="targetPoint" />
          </mxGeometry>
        </mxCell>
        <mxCell id="Ow6LU1PCgr3KY25qpwtb-96" value="1" style="text;html=1;align=center;verticalAlign=middle;resizable=0;points=[];autosize=1;strokeColor=none;fillColor=none;" vertex="1" parent="WIyWlLk6GJQsqaUBKTNV-1">
          <mxGeometry x="210" y="510" width="30" height="30" as="geometry" />
        </mxCell>
        <mxCell id="Ow6LU1PCgr3KY25qpwtb-97" value="*" style="text;html=1;align=center;verticalAlign=middle;resizable=0;points=[];autosize=1;strokeColor=none;fillColor=none;" vertex="1" parent="WIyWlLk6GJQsqaUBKTNV-1">
          <mxGeometry x="170" y="597" width="30" height="30" as="geometry" />
        </mxCell>
        <mxCell id="Ow6LU1PCgr3KY25qpwtb-100" value="KhachHang" style="swimlane;fontStyle=1;align=center;verticalAlign=top;childLayout=stackLayout;horizontal=1;startSize=26;horizontalStack=0;resizeParent=1;resizeParentMax=0;resizeLast=0;collapsible=1;marginBottom=0;whiteSpace=wrap;html=1;" vertex="1" parent="WIyWlLk6GJQsqaUBKTNV-1">
          <mxGeometry x="90" y="-70" width="160" height="140" as="geometry" />
        </mxCell>
        <mxCell id="Ow6LU1PCgr3KY25qpwtb-104" value="" style="line;strokeWidth=1;fillColor=none;align=left;verticalAlign=middle;spacingTop=-1;spacingLeft=3;spacingRight=3;rotatable=0;labelPosition=right;points=[];portConstraint=eastwest;strokeColor=inherit;" vertex="1" parent="Ow6LU1PCgr3KY25qpwtb-100">
          <mxGeometry y="26" width="160" height="22" as="geometry" />
        </mxCell>
        <mxCell id="Ow6LU1PCgr3KY25qpwtb-105" value="&lt;div&gt;addToCart()&lt;/div&gt;&lt;div&gt;&lt;br&gt;&lt;/div&gt;&lt;div&gt;updateInfomation()&lt;/div&gt;&lt;div&gt;&lt;br&gt;&lt;/div&gt;&lt;div&gt;findDonHang()&lt;/div&gt;" style="text;strokeColor=none;fillColor=none;align=left;verticalAlign=top;spacingLeft=4;spacingRight=4;overflow=hidden;rotatable=0;points=[[0,0.5],[1,0.5]];portConstraint=eastwest;whiteSpace=wrap;html=1;" vertex="1" parent="Ow6LU1PCgr3KY25qpwtb-100">
          <mxGeometry y="48" width="160" height="92" as="geometry" />
        </mxCell>
        <mxCell id="Ow6LU1PCgr3KY25qpwtb-107" value="" style="endArrow=none;html=1;rounded=0;" edge="1" parent="WIyWlLk6GJQsqaUBKTNV-1" source="Ow6LU1PCgr3KY25qpwtb-1" target="Ow6LU1PCgr3KY25qpwtb-100">
          <mxGeometry width="50" height="50" relative="1" as="geometry">
            <mxPoint x="110" y="160" as="sourcePoint" />
            <mxPoint x="160" y="110" as="targetPoint" />
          </mxGeometry>
        </mxCell>
        <mxCell id="Ow6LU1PCgr3KY25qpwtb-108" value="1" style="text;html=1;align=center;verticalAlign=middle;resizable=0;points=[];autosize=1;strokeColor=none;fillColor=none;" vertex="1" parent="WIyWlLk6GJQsqaUBKTNV-1">
          <mxGeometry x="115" y="70" width="30" height="30" as="geometry" />
        </mxCell>
        <mxCell id="Ow6LU1PCgr3KY25qpwtb-109" value="*" style="text;html=1;align=center;verticalAlign=middle;resizable=0;points=[];autosize=1;strokeColor=none;fillColor=none;" vertex="1" parent="WIyWlLk6GJQsqaUBKTNV-1">
          <mxGeometry x="40" y="150" width="30" height="30" as="geometry" />
        </mxCell>
        <mxCell id="Ow6LU1PCgr3KY25qpwtb-110" value="Quản lý" style="swimlane;fontStyle=1;align=center;verticalAlign=top;childLayout=stackLayout;horizontal=1;startSize=26;horizontalStack=0;resizeParent=1;resizeParentMax=0;resizeLast=0;collapsible=1;marginBottom=0;whiteSpace=wrap;html=1;" vertex="1" parent="WIyWlLk6GJQsqaUBKTNV-1">
          <mxGeometry x="670" y="-140" width="160" height="160" as="geometry" />
        </mxCell>
        <mxCell id="Ow6LU1PCgr3KY25qpwtb-111" value="" style="line;strokeWidth=1;fillColor=none;align=left;verticalAlign=middle;spacingTop=-1;spacingLeft=3;spacingRight=3;rotatable=0;labelPosition=right;points=[];portConstraint=eastwest;strokeColor=inherit;" vertex="1" parent="Ow6LU1PCgr3KY25qpwtb-110">
          <mxGeometry y="26" width="160" height="22" as="geometry" />
        </mxCell>
        <mxCell id="Ow6LU1PCgr3KY25qpwtb-112" value="&lt;div&gt;add()&lt;/div&gt;&lt;div&gt;&lt;br&gt;&lt;/div&gt;&lt;div&gt;update()&lt;/div&gt;&lt;div&gt;&lt;br&gt;&lt;/div&gt;&lt;div&gt;delete()&lt;/div&gt;&lt;div&gt;&lt;br&gt;&lt;/div&gt;&lt;div&gt;find()&lt;/div&gt;" style="text;strokeColor=none;fillColor=none;align=left;verticalAlign=top;spacingLeft=4;spacingRight=4;overflow=hidden;rotatable=0;points=[[0,0.5],[1,0.5]];portConstraint=eastwest;whiteSpace=wrap;html=1;" vertex="1" parent="Ow6LU1PCgr3KY25qpwtb-110">
          <mxGeometry y="48" width="160" height="112" as="geometry" />
        </mxCell>
        <mxCell id="Ow6LU1PCgr3KY25qpwtb-117" value="1" style="text;html=1;align=center;verticalAlign=middle;resizable=0;points=[];autosize=1;strokeColor=none;fillColor=none;" vertex="1" parent="WIyWlLk6GJQsqaUBKTNV-1">
          <mxGeometry x="475" y="558" width="30" height="30" as="geometry" />
        </mxCell>
        <mxCell id="Ow6LU1PCgr3KY25qpwtb-118" value="*" style="text;html=1;align=center;verticalAlign=middle;resizable=0;points=[];autosize=1;strokeColor=none;fillColor=none;" vertex="1" parent="WIyWlLk6GJQsqaUBKTNV-1">
          <mxGeometry x="395" y="428" width="30" height="30" as="geometry" />
        </mxCell>
        <mxCell id="Ow6LU1PCgr3KY25qpwtb-119" value="1" style="text;html=1;align=center;verticalAlign=middle;resizable=0;points=[];autosize=1;strokeColor=none;fillColor=none;" vertex="1" parent="WIyWlLk6GJQsqaUBKTNV-1">
          <mxGeometry x="475" y="278" width="30" height="30" as="geometry" />
        </mxCell>
        <mxCell id="Ow6LU1PCgr3KY25qpwtb-120" value="*" style="text;html=1;align=center;verticalAlign=middle;resizable=0;points=[];autosize=1;strokeColor=none;fillColor=none;" vertex="1" parent="WIyWlLk6GJQsqaUBKTNV-1">
          <mxGeometry x="395" y="298" width="30" height="30" as="geometry" />
        </mxCell>
        <mxCell id="Ow6LU1PCgr3KY25qpwtb-121" value="*" style="text;html=1;align=center;verticalAlign=middle;resizable=0;points=[];autosize=1;strokeColor=none;fillColor=none;" vertex="1" parent="WIyWlLk6GJQsqaUBKTNV-1">
          <mxGeometry x="215" y="398" width="30" height="30" as="geometry" />
        </mxCell>
        <mxCell id="Ow6LU1PCgr3KY25qpwtb-122" value="1" style="text;html=1;align=center;verticalAlign=middle;resizable=0;points=[];autosize=1;strokeColor=none;fillColor=none;" vertex="1" parent="WIyWlLk6GJQsqaUBKTNV-1">
          <mxGeometry x="15" y="568" width="30" height="30" as="geometry" />
        </mxCell>
        <mxCell id="Ow6LU1PCgr3KY25qpwtb-124" value="" style="endArrow=block;endSize=16;endFill=0;html=1;rounded=0;" edge="1" parent="WIyWlLk6GJQsqaUBKTNV-1" source="Ow6LU1PCgr3KY25qpwtb-100" target="Ow6LU1PCgr3KY25qpwtb-12">
          <mxGeometry width="160" relative="1" as="geometry">
            <mxPoint x="-90" y="-180" as="sourcePoint" />
            <mxPoint x="70" y="-180" as="targetPoint" />
          </mxGeometry>
        </mxCell>
        <mxCell id="Ow6LU1PCgr3KY25qpwtb-125" value="" style="endArrow=block;endSize=16;endFill=0;html=1;rounded=0;" edge="1" parent="WIyWlLk6GJQsqaUBKTNV-1" source="Ow6LU1PCgr3KY25qpwtb-110" target="Ow6LU1PCgr3KY25qpwtb-12">
          <mxGeometry width="160" relative="1" as="geometry">
            <mxPoint x="580" y="90" as="sourcePoint" />
            <mxPoint x="700" y="49" as="targetPoint" />
          </mxGeometry>
        </mxCell>
        <mxCell id="Ow6LU1PCgr3KY25qpwtb-126" value="" style="endArrow=none;html=1;rounded=0;" edge="1" parent="WIyWlLk6GJQsqaUBKTNV-1" source="Ow6LU1PCgr3KY25qpwtb-25" target="Ow6LU1PCgr3KY25qpwtb-110">
          <mxGeometry width="50" height="50" relative="1" as="geometry">
            <mxPoint x="505" y="140" as="sourcePoint" />
            <mxPoint x="578" y="49" as="targetPoint" />
            <Array as="points">
              <mxPoint x="510" y="110" />
            </Array>
          </mxGeometry>
        </mxCell>
        <mxCell id="Ow6LU1PCgr3KY25qpwtb-127" value="1" style="text;html=1;align=center;verticalAlign=middle;resizable=0;points=[];autosize=1;strokeColor=none;fillColor=none;" vertex="1" parent="WIyWlLk6GJQsqaUBKTNV-1">
          <mxGeometry x="640" y="-30" width="30" height="30" as="geometry" />
        </mxCell>
        <mxCell id="Ow6LU1PCgr3KY25qpwtb-128" value="*" style="text;html=1;align=center;verticalAlign=middle;resizable=0;points=[];autosize=1;strokeColor=none;fillColor=none;" vertex="1" parent="WIyWlLk6GJQsqaUBKTNV-1">
          <mxGeometry x="395" y="208" width="30" height="30" as="geometry" />
        </mxCell>
      </root>
    </mxGraphModel>
  </diagram>
</mxfile>
